<svg width="24" height="24" xmlns="http://www.w3.org/2000/svg">
  <path stroke="null" d="m12,3.211237c-5.104696,0 -9.239269,4.035081 -9.239269,9.011907c0,3.982512 2.647051,7.359724 6.31735,8.550046c0.461963,0.084862 0.63135,-0.193756 0.63135,-0.433323c0,-0.214033 -0.007699,-0.781032 -0.011549,-1.532024c-2.570057,0.543718 -3.112094,-1.209097 -3.112094,-1.209097c-0.420387,-1.040124 -1.027869,-1.317991 -1.027869,-1.317991c-0.836924,-0.558738 0.064675,-0.547473 0.064675,-0.547473c0.927777,0.063083 1.415148,0.928226 1.415148,0.928226c0.823835,1.378071 2.162759,0.980045 2.690937,0.74949c0.083153,-0.58277 0.321065,-0.980045 0.585154,-1.205343c-2.051888,-0.225298 -4.208487,-1.000322 -4.208487,-4.453384c0,-0.9838 0.358022,-1.787361 0.950875,-2.418195c-0.103942,-0.227551 -0.415767,-1.143761 0.080844,-2.385151c0,0 0.773789,-0.241819 2.540799,0.92372c0.739142,-0.200515 1.524479,-0.299646 2.309817,-0.304152c0.785338,0.004506 1.570676,0.103637 2.309817,0.304152c1.755461,-1.16554 2.52925,-0.92372 2.52925,-0.92372c0.496611,1.24139 0.184785,2.157601 0.092393,2.385151c0.589003,0.630833 0.947025,1.434395 0.947025,2.418195c0,3.462074 -2.159679,4.224331 -4.215416,4.445874c0.323374,0.270357 0.623651,0.823087 0.623651,1.667203c0,1.206094 -0.011549,2.174873 -0.011549,2.46776c0,0.236563 0.161687,0.518185 0.6352,0.428066c3.696478,-1.182062 6.341218,-4.561527 6.341218,-8.538031c0,-4.976825 -4.136883,-9.011907 -9.239269,-9.011907"/>
 
</svg>